<?xml version="1.0" standalone="no"?><!DOCTYPE svg PUBLIC "-//W3C//DTD SVG 1.1//EN" "http://www.w3.org/Graphics/SVG/1.1/DTD/svg11.dtd"><svg t="1700809854285" class="icon" viewBox="0 0 1024 1024" version="1.1" xmlns="http://www.w3.org/2000/svg" p-id="2253" width="60" height="60" xmlns:xlink="http://www.w3.org/1999/xlink"><path d="M810.666667 597.333333h-85.333334v-64a21.333333 21.333333 0 0 0-21.333333-21.333333h-85.333333a21.333333 21.333333 0 0 0-21.333334 21.333333V597.333333h-170.666666v-64a21.333333 21.333333 0 0 0-21.333334-21.333333h-85.333333a21.333333 21.333333 0 0 0-21.333333 21.333333V597.333333H213.333333a42.666667 42.666667 0 0 0-42.666666 42.666667v256a42.666667 42.666667 0 0 0 42.666666 42.666667h597.333334a42.666667 42.666667 0 0 0 42.666666-42.666667v-256a42.666667 42.666667 0 0 0-42.666666-42.666667z m-42.666667 256H256v-170.666666h512z m42.666667-768H213.333333a42.666667 42.666667 0 0 0-42.666666 42.666667v256a42.666667 42.666667 0 0 0 42.666666 42.666667h597.333334a42.666667 42.666667 0 0 0 42.666666-42.666667V128a42.666667 42.666667 0 0 0-42.666666-42.666667z m-42.666667 256H256V170.666667h512z" p-id="2254" fill="#ffffff"></path></svg>